<svg width="141" height="27" viewBox="0 0 141 27" fill="none" xmlns="http://www.w3.org/2000/svg">
<path d="M22.2968 12.3861V15.2171C22.2968 16.2304 22.1131 17.2058 21.7458 18.1431C21.3784 19.0678 20.8654 19.9228 20.2068 20.7081C19.5481 21.4934 18.7754 22.1774 17.8888 22.7601C17.0021 23.3428 16.0331 23.7924 14.9818 24.1091C13.9051 24.4384 12.7904 24.6031 11.6378 24.6031C10.4091 24.6031 9.25011 24.4194 8.16077 24.0521C7.07144 23.6721 6.08344 23.1401 5.19677 22.4561C4.46211 21.8861 3.74644 21.1388 3.04977 20.2141C2.35311 19.2894 1.81477 18.1621 1.43477 16.8321C1.08011 15.6414 0.902773 14.4001 0.902773 13.1081C0.902773 11.7781 1.06744 10.5494 1.39677 9.42209C1.73877 8.28208 2.22011 7.23708 2.84077 6.28708C3.53744 5.21042 4.35444 4.33642 5.29177 3.66509C6.24177 2.99375 7.17911 2.49975 8.10377 2.18308C8.66111 2.00575 9.24377 1.86642 9.85177 1.76509C10.4724 1.66375 11.1121 1.61309 11.7708 1.61309C12.8348 1.61309 13.8291 1.73975 14.7538 1.99308C15.6911 2.24642 16.5714 2.62008 17.3948 3.11408C18.1421 3.57009 18.8324 4.14642 19.4658 4.84308C20.1118 5.53975 20.6438 6.34409 21.0618 7.25608C21.2644 7.69942 21.4354 8.16175 21.5748 8.64309C21.7268 9.12442 21.8408 9.63108 21.9168 10.1631H17.3568C17.2808 9.75775 17.1288 9.33342 16.9008 8.89009C16.6854 8.43409 16.3814 8.00342 15.9888 7.59808C15.2794 6.90142 14.4181 6.42642 13.4048 6.17309C12.8854 6.04642 12.3408 5.98309 11.7708 5.98309C11.0488 5.98309 10.3521 6.09709 9.68077 6.32509C9.00944 6.54042 8.41411 6.85708 7.89477 7.27508C6.81811 8.14908 6.07711 9.31442 5.67177 10.7711C5.46911 11.5058 5.36777 12.2974 5.36777 13.1461C5.36777 14.0328 5.47544 14.8434 5.69077 15.5781C5.91877 16.3128 6.19744 16.9271 6.52677 17.4211C6.86877 17.9658 7.29311 18.4534 7.79977 18.8841C8.31911 19.3148 8.93344 19.6504 9.64277 19.8911C10.3014 20.1191 11.0171 20.2331 11.7898 20.2331C12.3471 20.2331 12.8854 20.1698 13.4048 20.0431C13.9241 19.9164 14.4054 19.7391 14.8488 19.5111C15.2668 19.2958 15.6594 19.0234 16.0268 18.6941C16.4068 18.3521 16.7234 17.9658 16.9768 17.5351C17.2301 17.1298 17.4328 16.6801 17.5848 16.1861H11.7898V12.3861H22.2968ZM27.9832 18.8841V24.4131H23.5182V1.80308H28.7432L30.4342 7.88308C30.5862 8.40242 30.7445 8.98508 30.9092 9.63108C31.0738 10.2644 31.2322 10.9041 31.3842 11.5501C31.5362 12.1834 31.6628 12.7471 31.7642 13.2411C31.9922 14.2924 32.1948 15.2678 32.3722 16.1671C32.5495 17.0664 32.7268 17.9911 32.9042 18.9411C32.9802 19.3971 33.0498 19.8404 33.1132 20.2711C33.1765 20.7144 33.2398 21.1451 33.3032 21.5631H33.6832C33.5818 20.8918 33.4868 20.2901 33.3982 19.7581C33.3095 19.2134 33.2208 18.6561 33.1322 18.0861C33.0435 17.5161 32.9485 16.8384 32.8472 16.0531C32.7585 15.4958 32.6698 14.8688 32.5812 14.1721C32.4925 13.4628 32.4102 12.7661 32.3342 12.0821C32.2582 11.3854 32.2075 10.7711 32.1822 10.2391C32.1442 9.77042 32.1125 9.31442 32.0872 8.87109C32.0745 8.41509 32.0682 7.97809 32.0682 7.56009V1.80308H36.5332V24.4131H31.5932L29.8452 18.5421C29.7185 18.1368 29.5728 17.6301 29.4082 17.0221C29.2435 16.4141 29.0662 15.7681 28.8762 15.0841C28.6988 14.3874 28.5342 13.7034 28.3822 13.0321C28.1668 12.1074 27.9515 11.1574 27.7362 10.1821C27.5208 9.19409 27.3308 8.22509 27.1662 7.27508C27.0775 6.81909 26.9952 6.36942 26.9192 5.92608C26.8432 5.48275 26.7735 5.05842 26.7102 4.65308H26.3302C26.4568 5.47642 26.5962 6.35042 26.7482 7.27508C26.9002 8.18708 27.0522 9.15609 27.2042 10.1821C27.3308 11.1701 27.4575 12.1708 27.5842 13.1841C27.7108 14.1848 27.8122 15.1664 27.8882 16.1291C27.9135 16.6104 27.9325 17.0854 27.9452 17.5541C27.9705 18.0101 27.9832 18.4534 27.9832 18.8841Z" fill="white"/>
<path d="M72.0681 9.173V7.843C72.0681 6.61433 71.6564 6 70.8331 6C70.4531 6 70.1554 6.14567 69.9401 6.437C69.7248 6.72833 69.6171 7.14633 69.6171 7.691C69.6171 7.85567 69.6298 8.033 69.6551 8.223C69.6931 8.413 69.7754 8.61567 69.9021 8.831C70.0034 9.021 70.1554 9.249 70.3581 9.515C70.5608 9.76833 70.8141 10.0407 71.1181 10.332C71.2701 10.4967 71.4411 10.6677 71.6311 10.845C71.8084 11.035 72.0111 11.2313 72.2391 11.434C72.9231 12.0547 73.5501 12.6627 74.1201 13.258C74.7028 13.8533 75.1778 14.379 75.5451 14.835C75.9124 15.3163 76.2038 15.7787 76.4191 16.222C76.6344 16.6653 76.7928 17.1213 76.8941 17.59C76.9448 17.8307 76.9764 18.0777 76.9891 18.331C77.0144 18.5843 77.0271 18.8503 77.0271 19.129C77.0271 19.889 76.9448 20.592 76.7801 21.238C76.6154 21.8713 76.3621 22.4413 76.0201 22.948C75.7034 23.4293 75.2854 23.841 74.7661 24.183C74.2594 24.525 73.7021 24.772 73.0941 24.924C72.4228 25.1013 71.7008 25.19 70.9281 25.19C69.3701 25.19 68.1034 24.8543 67.1281 24.183C66.1654 23.5243 65.5258 22.5427 65.2091 21.238C65.0444 20.6047 64.9621 19.8763 64.9621 19.053V17.058H69.1421V19.072C69.1421 19.8067 69.2941 20.3767 69.5981 20.782C69.8768 21.1873 70.3074 21.39 70.8901 21.39C71.0928 21.39 71.2891 21.3647 71.4791 21.314C71.6691 21.2507 71.8274 21.1557 71.9541 21.029C72.0681 20.915 72.1758 20.7757 72.2771 20.611C72.3784 20.4337 72.4544 20.2183 72.5051 19.965C72.5178 19.851 72.5304 19.7307 72.5431 19.604C72.5558 19.4647 72.5621 19.3253 72.5621 19.186C72.5621 18.92 72.5431 18.692 72.5051 18.502C72.4671 18.2993 72.3911 18.084 72.2771 17.856C72.1504 17.628 71.9731 17.3937 71.7451 17.153C71.5298 16.9123 71.2764 16.6463 70.9851 16.355C70.8204 16.203 70.6368 16.0383 70.4341 15.861C70.2441 15.6837 70.0351 15.4937 69.8071 15.291C69.0978 14.6577 68.4771 14.0813 67.9451 13.562C67.4258 13.03 66.9824 12.517 66.6151 12.023C66.2478 11.5417 65.9564 11.0793 65.7411 10.636C65.5384 10.18 65.3864 9.71767 65.2851 9.249C65.2344 9.021 65.1964 8.78033 65.1711 8.527C65.1584 8.27367 65.1521 8.014 65.1521 7.748C65.1521 7.05133 65.2218 6.40533 65.3611 5.81C65.5131 5.202 65.7474 4.67 66.0641 4.214C66.6848 3.32733 67.5841 2.732 68.7621 2.428C69.3448 2.276 70.0098 2.2 70.7571 2.2C72.1758 2.2 73.3411 2.485 74.2531 3.055C74.5571 3.245 74.8801 3.54267 75.2221 3.948C75.5641 4.35333 75.8301 4.90433 76.0201 5.601C76.1721 6.171 76.2481 6.80433 76.2481 7.501V9.173H72.0681ZM78.263 25V2.39H82.728V25H78.263ZM91.073 9.173V7.843C91.073 6.61433 90.6613 6 89.838 6C89.458 6 89.1603 6.14567 88.945 6.437C88.7296 6.72833 88.622 7.14633 88.622 7.691C88.622 7.85567 88.6346 8.033 88.66 8.223C88.698 8.413 88.7803 8.61567 88.907 8.831C89.0083 9.021 89.1603 9.249 89.363 9.515C89.5656 9.76833 89.819 10.0407 90.123 10.332C90.275 10.4967 90.446 10.6677 90.636 10.845C90.8133 11.035 91.016 11.2313 91.244 11.434C91.928 12.0547 92.555 12.6627 93.125 13.258C93.7076 13.8533 94.1826 14.379 94.55 14.835C94.9173 15.3163 95.2086 15.7787 95.424 16.222C95.6393 16.6653 95.7976 17.1213 95.899 17.59C95.9496 17.8307 95.9813 18.0777 95.994 18.331C96.0193 18.5843 96.032 18.8503 96.032 19.129C96.032 19.889 95.9496 20.592 95.785 21.238C95.6203 21.8713 95.367 22.4413 95.025 22.948C94.7083 23.4293 94.2903 23.841 93.771 24.183C93.2643 24.525 92.707 24.772 92.099 24.924C91.4276 25.1013 90.7056 25.19 89.933 25.19C88.375 25.19 87.1083 24.8543 86.133 24.183C85.1703 23.5243 84.5306 22.5427 84.214 21.238C84.0493 20.6047 83.967 19.8763 83.967 19.053V17.058H88.147V19.072C88.147 19.8067 88.299 20.3767 88.603 20.782C88.8816 21.1873 89.3123 21.39 89.895 21.39C90.0976 21.39 90.294 21.3647 90.484 21.314C90.674 21.2507 90.8323 21.1557 90.959 21.029C91.073 20.915 91.1806 20.7757 91.282 20.611C91.3833 20.4337 91.4593 20.2183 91.51 19.965C91.5226 19.851 91.5353 19.7307 91.548 19.604C91.5606 19.4647 91.567 19.3253 91.567 19.186C91.567 18.92 91.548 18.692 91.51 18.502C91.472 18.2993 91.396 18.084 91.282 17.856C91.1553 17.628 90.978 17.3937 90.75 17.153C90.5346 16.9123 90.2813 16.6463 89.99 16.355C89.8253 16.203 89.6416 16.0383 89.439 15.861C89.249 15.6837 89.04 15.4937 88.812 15.291C88.1026 14.6577 87.482 14.0813 86.95 13.562C86.4306 13.03 85.9873 12.517 85.62 12.023C85.2526 11.5417 84.9613 11.0793 84.746 10.636C84.5433 10.18 84.3913 9.71767 84.29 9.249C84.2393 9.021 84.2013 8.78033 84.176 8.527C84.1633 8.27367 84.157 8.014 84.157 7.748C84.157 7.05133 84.2266 6.40533 84.366 5.81C84.518 5.202 84.7523 4.67 85.069 4.214C85.6896 3.32733 86.589 2.732 87.767 2.428C88.3496 2.276 89.0146 2.2 89.762 2.2C91.1806 2.2 92.346 2.485 93.258 3.055C93.562 3.245 93.885 3.54267 94.227 3.948C94.569 4.35333 94.835 4.90433 95.025 5.601C95.177 6.171 95.253 6.80433 95.253 7.501V9.173H91.073Z" fill="white"/>
<g clip-path="url(#clip0_458_11651)">
<path d="M59.7202 12.2491C59.7202 11.4625 59.4612 10.7472 59.0136 10.18L54.2752 14.9162C54.8523 15.3637 55.5687 15.6227 56.3454 15.6227C58.2171 15.6216 59.73 14.1098 59.7202 12.2491ZM45.6254 15.6117C43.7636 15.6216 42.2507 14.1086 42.2507 12.2381C42.2507 11.4625 42.5096 10.7461 42.9572 10.169L47.6957 14.9052C47.1285 15.3527 46.412 15.6117 45.6254 15.6117ZM41.9621 9.19369C41.2654 10.0297 40.8474 11.084 40.8474 12.2579C40.8474 14.8942 42.9879 17.0335 45.6254 17.0335C46.7895 17.0335 47.8548 16.6155 48.6908 15.9189L50.9903 18.2173L53.2899 15.9189C54.1259 16.6155 55.1814 17.0335 56.3553 17.0335C58.9928 17.0335 61.1333 14.8942 61.1333 12.2579C61.1333 11.0939 60.7153 10.0286 60.0186 9.19369L61.0937 8.11964L62.1184 7.09496C63.3132 9.06424 64 11.3626 64 13.8311C64 21.0148 58.1775 26.8262 51.0002 26.8262C43.8239 26.8262 38.0004 21.005 38.0004 13.8311C37.9807 11.3539 38.6675 9.05547 39.8622 7.09496L41.9621 9.19369ZM51.0002 16.2282L61.3131 5.91997C61.0247 5.55135 60.7163 5.1937 60.3971 4.85579C58.0284 2.37856 54.6931 0.826172 50.9903 0.826172C47.2876 0.826172 43.9435 2.37856 41.5836 4.85579C41.2556 5.18382 40.9462 5.55245 40.6873 5.91009L51.0002 16.2282ZM58.984 5.83111L50.9914 13.8212L42.9989 5.83111C45.1185 3.69177 47.9458 2.51789 50.9914 2.51789C54.037 2.51789 56.8533 3.69177 58.984 5.83111Z" fill="white"/>
</g>
<path d="M103.592 25C103.4 25 103.283 24.904 103.24 24.712L98.6 2.952V2.888C98.6 2.696 98.696 2.6 98.888 2.6H100.68C100.893 2.6 101.011 2.696 101.032 2.888L104.488 20.776C104.509 20.8187 104.531 20.84 104.552 20.84C104.573 20.84 104.595 20.8187 104.616 20.776L108.04 2.888C108.083 2.696 108.2 2.6 108.392 2.6H110.12C110.355 2.6 110.451 2.71733 110.408 2.952L105.768 24.712C105.747 24.904 105.629 25 105.416 25H103.592ZM118.935 2.568C120.492 2.568 121.751 3.144 122.711 4.296C123.671 5.42667 124.151 6.92 124.151 8.776C124.151 10.6107 123.681 12.0933 122.743 13.224C121.804 14.3333 120.567 14.888 119.031 14.888H115.735C115.649 14.888 115.607 14.9307 115.607 15.016V24.68C115.607 24.8933 115.5 25 115.286 25H113.655C113.441 25 113.335 24.8933 113.335 24.68V2.888C113.335 2.67467 113.441 2.568 113.655 2.568H118.935ZM118.647 13.032C119.607 13.032 120.385 12.648 120.983 11.88C121.58 11.112 121.879 10.088 121.879 8.808C121.879 7.528 121.58 6.504 120.983 5.736C120.385 4.94666 119.607 4.552 118.647 4.552H115.735C115.649 4.552 115.607 4.59466 115.607 4.68V12.904C115.607 12.9893 115.649 13.032 115.735 13.032H118.647ZM136.003 2.92C136.003 2.70667 136.109 2.6 136.323 2.6H137.923C138.136 2.6 138.243 2.70667 138.243 2.92V24.68C138.243 24.8933 138.136 25 137.923 25H136.035C135.864 25 135.747 24.9147 135.683 24.744L129.443 8.2C129.421 8.136 129.389 8.11467 129.347 8.136C129.304 8.136 129.283 8.168 129.283 8.232L129.315 24.68C129.315 24.8933 129.208 25 128.995 25H127.363C127.149 25 127.043 24.8933 127.043 24.68V2.92C127.043 2.70667 127.149 2.6 127.363 2.6H129.219C129.389 2.6 129.507 2.68533 129.571 2.856L135.843 19.432C135.864 19.496 135.896 19.528 135.939 19.528C135.981 19.5067 136.003 19.464 136.003 19.4V2.92Z" fill="#FFFFA0"/>
<defs>
<clipPath id="clip0_458_11651">
<rect width="26" height="26" fill="white" transform="translate(38 0.826172)"/>
</clipPath>
</defs>
</svg>
